<svg width="60" height="63" viewBox="0 0 60 63" fill="none" xmlns="http://www.w3.org/2000/svg">
<g id="&#240;&#159;&#166;&#134; icon &#34;linkedin original&#34;">
<path id="Vector" d="M55.5738 0.646095H4.42623C3.26573 0.633821 2.14794 1.10048 1.31813 1.94368C0.488316 2.78688 0.0142678 3.93774 0 5.14374V58.5123C0.0168481 59.7166 0.49203 60.8648 1.32156 61.7058C2.15109 62.5468 3.26741 63.0121 4.42623 62.9998H55.5738C56.7343 63.0093 57.8514 62.5411 58.6808 61.6974C59.5101 60.8536 59.9844 59.703 60 58.497V5.1284C59.9793 3.92594 59.5028 2.78057 58.6739 1.94124C57.8451 1.10191 56.731 0.636475 55.5738 0.646095Z" fill="#0076B2"/>
<g id="Group">
<path id="Vector_2" d="M8.88203 24.0187H17.7886V53.8003H8.88203V24.0187ZM13.3378 9.19694C14.3593 9.19694 15.3579 9.51181 16.2072 10.1017C17.0565 10.6916 17.7184 11.5301 18.1091 12.511C18.4998 13.4918 18.6018 14.5711 18.4021 15.6123C18.2025 16.6534 17.7102 17.6096 16.9875 18.3599C16.2648 19.1103 15.3442 19.621 14.3422 19.8275C13.3402 20.0339 12.3017 19.9269 11.3582 19.52C10.4147 19.113 9.60855 18.4244 9.04172 17.5412C8.47489 16.658 8.17286 15.6199 8.17383 14.5583C8.17513 13.1359 8.71976 11.7723 9.68805 10.7669C10.6563 9.76163 11.9691 9.19694 13.3378 9.19694Z" fill="white"/>
<path id="Vector_3" d="M23.3752 24.0187H31.9129V28.1075H32.031C33.2211 25.7667 36.1228 23.2981 40.4556 23.2981C49.4752 23.2776 51.1474 29.4466 51.1474 37.4452V53.8003H42.2408V39.3107C42.2408 35.8608 42.1818 31.4194 37.613 31.4194C33.0441 31.4194 32.267 35.181 32.267 39.0858V53.8003H23.3752V24.0187Z" fill="white"/>
</g>
</g>
</svg>
