<svg width="58" height="62" viewBox="0 0 58 62" fill="none" xmlns="http://www.w3.org/2000/svg">
<g id="&#240;&#159;&#166;&#134; icon &#34;facebook icon&#34;">
<path id="Vector" d="M49.3 0H8.7C3.89512 0 0 4.12038 0 9.20312V52.151C0 57.2338 3.89512 61.3541 8.7 61.3541H49.3C54.1049 61.3541 58 57.2338 58 52.151V9.20312C58 4.12038 54.1049 0 49.3 0Z" fill="#1877F2"/>
<path id="Vector_2" d="M40.2828 39.5447L41.5742 30.6771H33.5312V24.9251C33.5312 22.5045 34.6527 20.1318 38.2551 20.1318H41.9141V12.5824C41.9141 12.5824 38.5949 11.9832 35.423 11.9832C28.7961 11.9832 24.4688 16.2253 24.4688 23.9185V30.6771H17.1055V39.5447H24.4688V61.3541H33.5312V39.5447H40.2828Z" fill="white"/>
</g>
</svg>
