<svg width="63" height="64" viewBox="0 0 63 64" fill="none" xmlns="http://www.w3.org/2000/svg">
<g id="&#240;&#159;&#166;&#134; icon &#34;instagram icon&#34;">
<path id="c" d="M53.55 0.645859H9.45C4.23091 0.645859 0 4.90055 0 10.149V54.4969C0 59.7453 4.23091 64 9.45 64H53.55C58.7691 64 63 59.7453 63 54.4969V10.149C63 4.90055 58.7691 0.645859 53.55 0.645859Z" fill="black"/>
<path id="c_2" d="M53.55 0.645859H9.45C4.23091 0.645859 0 4.90055 0 10.149V54.4969C0 59.7453 4.23091 64 9.45 64H53.55C58.7691 64 63 59.7453 63 54.4969V10.149C63 4.90055 58.7691 0.645859 53.55 0.645859Z" fill="url(#paint0_radial_194_64)"/>
<path id="c_3" d="M53.55 0.645859H9.45C4.23091 0.645859 0 4.90055 0 10.149V54.4969C0 59.7453 4.23091 64 9.45 64H53.55C58.7691 64 63 59.7453 63 54.4969V10.149C63 4.90055 58.7691 0.645859 53.55 0.645859Z" fill="url(#paint1_linear_194_64)"/>
<g id="Group">
<path id="Vector" d="M40.4824 13.2672H22.5176C17.0131 13.2672 12.5508 17.7546 12.5508 23.29V41.3558C12.5508 46.8913 17.0131 51.3787 22.5176 51.3787H40.4824C45.9869 51.3787 50.4492 46.8913 50.4492 41.3558V23.29C50.4492 17.7546 45.9869 13.2672 40.4824 13.2672Z" stroke="white" stroke-width="4.73137"/>
<path id="Vector_2" d="M31.4998 41.2321C36.3927 41.2321 40.3591 37.2433 40.3591 32.3229C40.3591 27.4025 36.3927 23.4138 31.4998 23.4138C26.6069 23.4138 22.6404 27.4025 22.6404 32.3229C22.6404 37.2433 26.6069 41.2321 31.4998 41.2321Z" stroke="white" stroke-width="4.73137"/>
<path id="Vector_3" d="M42.697 21.8045C43.1048 21.8045 43.4353 21.4722 43.4353 21.0621C43.4353 20.6521 43.1048 20.3197 42.697 20.3197C42.2893 20.3197 41.9587 20.6521 41.9587 21.0621C41.9587 21.4722 42.2893 21.8045 42.697 21.8045Z" stroke="white" stroke-width="4.73137"/>
</g>
</g>
<defs>
<radialGradient id="paint0_radial_194_64" cx="0" cy="0" r="1" gradientUnits="userSpaceOnUse" gradientTransform="translate(25.2 64) scale(63 63.3541)">
<stop offset="0.1" stop-color="#FFDD55"/>
<stop offset="0.5" stop-color="#FF543E"/>
<stop offset="1" stop-color="#C837AB"/>
</radialGradient>
<linearGradient id="paint1_linear_194_64" x1="0" y1="0.645859" x2="12.7365" y2="63.9725" gradientUnits="userSpaceOnUse">
<stop offset="0.1" stop-color="#3771C8"/>
<stop offset="0.5" stop-color="#6600FF" stop-opacity="0"/>
</linearGradient>
</defs>
</svg>
